<svg width="608" height="249" viewBox="0 0 608 249" fill="none" xmlns="http://www.w3.org/2000/svg">
<g filter="url(#filter0_dddddd_40_1340)">
<path d="M94.2498 2.00335C94.8674 2 95.4791 2 96.0982 2H265.949C266.556 2 267.173 1.99983 267.779 2.00318C268.2 2.00578 268.628 2.01284 269.052 2.01981C269.147 2.02138 269.242 2.02294 269.336 2.02445C270.468 2.03689 271.597 2.13581 272.713 2.32033C273.834 2.50942 274.919 2.86329 275.935 3.37025C277.965 4.40464 279.618 6.04433 280.66 8.05869C281.169 9.0623 281.522 10.1369 281.705 11.2456C281.894 12.3538 281.998 13.4743 282.019 14.598C282.026 15.1115 282.026 15.6266 282.026 16.1402C282.039 16.7469 282.039 17.355 282.039 17.9684V53.0134C282.039 53.6316 282.039 54.2367 282.026 54.845C282.026 55.3649 282.026 55.8686 282.019 56.3887C281.998 57.5123 281.894 58.6328 281.705 59.7409C281.522 60.8503 281.17 61.9256 280.66 62.9297C280.142 63.9289 279.469 64.8412 278.665 65.6328C277.867 66.4313 276.945 67.0977 275.935 67.6066C274.919 68.1149 273.834 68.4709 272.713 68.6628C271.596 68.8459 270.468 68.9449 269.336 68.9589C268.822 68.9703 268.294 68.9768 267.779 68.9768C267.173 68.9802 266.556 68.9802 265.949 68.9802H96.0982C95.4791 68.9802 94.8674 68.9802 94.2499 68.9768C93.7329 68.9768 93.22 68.9703 92.6983 68.9589C91.5647 68.9441 90.4337 68.8451 89.315 68.6628C88.1978 68.4722 87.1159 68.1161 86.1055 67.6066C85.0939 67.098 84.1712 66.4316 83.3727 65.6328C82.5668 64.8442 81.895 63.9314 81.3835 62.9297C80.8698 61.9263 80.5139 60.851 80.3282 59.7409C80.1403 58.633 80.0391 57.5123 80.0257 56.3889C80.0149 56.0332 80.0107 55.6852 80.0065 55.3345C80.0046 55.1722 80.0026 55.0094 80 54.845V16.1402C80.0026 15.9759 80.0046 15.8114 80.0066 15.6469C80.0108 15.2972 80.015 14.9473 80.0257 14.5981C80.0391 13.4746 80.1402 12.3538 80.3282 11.2458C80.5144 10.1363 80.8703 9.06151 81.3835 8.05852C81.8952 7.05364 82.5669 6.1371 83.3727 5.34415C84.1743 4.54891 85.0964 3.88294 86.1055 3.37042C87.1159 2.86221 88.198 2.50825 89.315 2.3205C90.4335 2.13676 91.5646 2.03784 92.6983 2.02462C92.8052 2.02294 92.9117 2.02119 93.018 2.01945C93.4304 2.0127 93.8388 2.00601 94.2498 2.00335Z" fill="black"/>
</g>
<path d="M94.258 67.5151C93.7435 67.5151 93.2415 67.5086 92.7312 67.4972C91.6739 67.4836 90.6191 67.3923 89.5754 67.2242C88.6022 67.0579 87.6595 66.7487 86.7783 66.3066C85.9051 65.8683 85.1087 65.2935 84.4196 64.6043C83.7204 63.9232 83.1384 63.1333 82.6964 62.2659C82.2497 61.3927 81.9405 60.4569 81.7796 59.4909C81.606 58.4529 81.5121 57.4033 81.4987 56.3512C81.4879 55.998 81.4739 54.8223 81.4739 54.8223V16.1401C81.4739 16.1401 81.4887 14.9824 81.4987 14.6421C81.5116 13.5917 81.605 12.5438 81.7781 11.5075C81.9393 10.5388 82.2487 9.60022 82.6958 8.72426C83.136 7.85737 83.7148 7.06684 84.4096 6.38331C85.1038 5.69329 85.9027 5.11554 86.7774 4.67113C87.6566 4.23056 88.5976 3.92355 89.5688 3.76036C90.6159 3.5906 91.6744 3.49886 92.7354 3.48591L94.2588 3.46515H267.771L269.313 3.48642C270.364 3.4988 271.413 3.58982 272.451 3.75869C273.432 3.92396 274.383 4.23317 275.272 4.67615C277.024 5.57174 278.45 6.98864 279.349 8.72828C279.789 9.59824 280.094 10.5292 280.253 11.4895C280.428 12.5344 280.526 13.5905 280.546 14.6495C280.551 15.1237 280.551 15.6331 280.551 16.1401C280.565 16.7681 280.565 17.3657 280.565 17.9684V53.0134C280.565 53.6217 280.565 54.2153 280.551 54.8138C280.551 55.3584 280.551 55.8572 280.545 56.3706C280.525 57.4108 280.428 58.4481 280.256 59.4743C280.098 60.4473 279.791 61.3904 279.344 62.2707C278.899 63.1287 278.321 63.9118 277.63 64.5911C276.94 65.284 276.142 65.8621 275.267 66.3033C274.38 66.7487 273.431 67.059 272.451 67.2239C271.407 67.393 270.352 67.4842 269.295 67.497C268.79 67.5087 268.285 67.5147 267.78 67.5149L265.95 67.5183L94.258 67.5151Z" fill="black"/>
<path d="M121.819 35.9941C121.837 34.5965 122.212 33.2261 122.907 32.0105C123.603 30.7949 124.597 29.7736 125.798 29.0416C125.035 27.9612 124.029 27.0722 122.859 26.445C121.69 25.8178 120.389 25.4697 119.059 25.4285C116.224 25.1333 113.476 27.111 112.031 27.111C110.558 27.111 108.334 25.4578 105.938 25.5067C104.389 25.5563 102.879 26.0031 101.555 26.8036C100.232 27.6041 99.1401 28.731 98.3863 30.0744C95.121 35.6815 97.5566 43.9217 100.685 48.4539C102.25 50.6733 104.078 53.1522 106.472 53.0643C108.814 52.968 109.688 51.5832 112.515 51.5832C115.316 51.5832 116.136 53.0643 118.578 53.0084C121.091 52.968 122.674 50.7793 124.184 48.539C125.309 46.9576 126.174 45.2099 126.748 43.3606C125.288 42.7482 124.042 41.723 123.166 40.4131C122.289 39.1031 121.821 37.5662 121.819 35.9941ZM117.207 22.4477C118.577 20.8164 119.252 18.7196 119.089 16.6027C116.996 16.8207 115.062 17.813 113.673 19.3817C112.994 20.148 112.474 21.0396 112.143 22.0054C111.812 22.9712 111.676 23.9923 111.742 25.0104C112.789 25.0211 113.825 24.796 114.772 24.3521C115.719 23.9082 116.551 23.257 117.207 22.4477ZM151.422 47.446H143.431L141.511 53.0663H138.126L145.696 32.2723H149.213L156.783 53.0663H153.34L151.422 47.446ZM144.258 44.8524H150.593L147.47 35.731H147.383L144.258 44.8524ZM173.131 45.487C173.131 50.1981 170.588 53.2249 166.751 53.2249C165.779 53.2754 164.813 53.0533 163.962 52.5842C163.112 52.1151 162.411 51.4179 161.942 50.5725H161.869V58.0816H158.731V37.9059H161.769V40.4275H161.826C162.318 39.5861 163.03 38.8926 163.887 38.4206C164.744 37.9487 165.714 37.716 166.694 37.7473C170.573 37.7473 173.131 40.7889 173.131 45.4869V45.487ZM169.905 45.487C169.905 42.4177 168.306 40.3997 165.866 40.3997C163.468 40.3997 161.856 42.46 161.856 45.4869C161.856 48.5417 163.468 50.5874 165.866 50.5874C168.306 50.5874 169.905 48.5842 169.905 45.4869V45.487ZM189.955 45.487C189.955 50.1981 187.413 53.2249 183.576 53.2249C182.604 53.2753 181.637 53.0533 180.787 52.5842C179.936 52.1151 179.236 51.4179 178.766 50.5725H178.694V58.0816H175.556V37.9059H178.593V40.4275H178.651C179.142 39.5861 179.854 38.8926 180.711 38.4206C181.568 37.9487 182.538 37.716 183.518 37.7473C187.398 37.7473 189.955 40.7889 189.955 45.4869V45.487ZM186.73 45.487C186.73 42.4177 185.131 40.3997 182.69 40.3997C180.293 40.3997 178.68 42.46 178.68 45.4869C178.68 48.5417 180.293 50.5874 182.69 50.5874C185.131 50.5874 186.73 48.5842 186.73 45.4869V45.487ZM201.075 47.2727C201.307 49.3347 203.327 50.6887 206.087 50.6887C208.732 50.6887 210.634 49.3347 210.634 47.4753C210.634 45.8613 209.487 44.8949 206.77 44.2327L204.052 43.5834C200.202 42.6611 198.415 40.8754 198.415 37.9777C198.415 34.3899 201.568 31.9257 206.044 31.9257C210.474 31.9257 213.512 34.3899 213.614 37.9777H210.446C210.257 35.9027 208.527 34.65 205.999 34.65C203.472 34.65 201.742 35.9174 201.742 37.7619C201.742 39.2321 202.847 40.0971 205.549 40.7592L207.859 41.3219C212.161 42.3308 213.948 44.0446 213.948 47.086C213.948 50.9764 210.824 53.413 205.854 53.413C201.205 53.413 198.065 51.0335 197.863 47.2725L201.075 47.2727ZM220.72 34.3183V37.9059H223.627V40.3702H220.72V48.728C220.72 50.0264 221.302 50.6314 222.58 50.6314C222.925 50.6255 223.27 50.6014 223.612 50.5594V53.0092C223.038 53.1156 222.454 53.1638 221.869 53.1529C218.775 53.1529 217.568 52.0002 217.568 49.0599V40.3702H215.345V37.9059H217.568V34.3183H220.72ZM225.31 45.487C225.31 40.7169 228.143 37.7195 232.56 37.7195C236.992 37.7195 239.812 40.7169 239.812 45.487C239.812 50.2701 237.007 53.2544 232.56 53.2544C228.115 53.2544 225.31 50.2701 225.31 45.487ZM236.615 45.487C236.615 42.2149 235.103 40.2835 232.56 40.2835C230.018 40.2835 228.507 42.2294 228.507 45.487C228.507 48.7722 230.018 50.6887 232.56 50.6887C235.103 50.6887 236.615 48.7722 236.615 45.487ZM242.399 37.9059H245.391V40.4863H245.464C245.666 39.6804 246.142 38.9681 246.812 38.4693C247.482 37.9705 248.304 37.7156 249.141 37.7473C249.502 37.746 249.863 37.785 250.216 37.8633V40.7741C249.759 40.6358 249.283 40.5723 248.806 40.5861C248.35 40.5677 247.896 40.6474 247.474 40.8197C247.052 40.992 246.673 41.2528 246.362 41.5842C246.052 41.9155 245.817 42.3096 245.674 42.7394C245.532 43.1692 245.485 43.6245 245.536 44.0741V53.0663H242.399V37.9059ZM264.682 48.6135C264.26 51.3657 261.558 53.2544 258.1 53.2544C253.653 53.2544 250.893 50.2996 250.893 45.5589C250.893 40.8036 253.668 37.7195 257.968 37.7195C262.198 37.7195 264.857 40.6008 264.857 45.1975V46.2637H254.061V46.4517C254.011 47.0097 254.081 47.5717 254.267 48.1006C254.453 48.6295 254.751 49.1131 255.14 49.5192C255.528 49.9254 256 50.2448 256.523 50.4563C257.046 50.6678 257.608 50.7666 258.173 50.746C258.914 50.8149 259.658 50.6446 260.294 50.2604C260.93 49.8762 261.425 49.2986 261.703 48.6135H264.682ZM254.076 44.0888H261.718C261.746 43.5871 261.669 43.0851 261.492 42.6142C261.316 42.1433 261.043 41.7137 260.691 41.3524C260.339 40.9911 259.915 40.7059 259.447 40.5146C258.978 40.3233 258.475 40.2302 257.968 40.241C257.457 40.238 256.951 40.3353 256.478 40.5275C256.005 40.7196 255.575 41.0027 255.214 41.3605C254.852 41.7182 254.565 42.1435 254.369 42.6118C254.174 43.0801 254.074 43.5821 254.076 44.0888ZM143.865 16.6206C144.523 16.5738 145.183 16.6723 145.798 16.9091C146.412 17.146 146.967 17.5152 147.42 17.9901C147.874 18.4651 148.215 19.0339 148.42 19.6556C148.625 20.2773 148.688 20.9364 148.605 21.5853C148.605 24.7773 146.866 26.6122 143.865 26.6122H140.226V16.6204L143.865 16.6206ZM141.791 25.1991H143.69C144.16 25.2269 144.631 25.1505 145.067 24.9753C145.504 24.8001 145.895 24.5306 146.214 24.1864C146.532 23.8421 146.769 23.4319 146.907 22.9854C147.045 22.539 147.081 22.0676 147.012 21.6056C147.076 21.1454 147.036 20.6769 146.896 20.2337C146.756 19.7906 146.518 19.3837 146.201 19.0422C145.883 18.7007 145.494 18.4331 145.06 18.2585C144.625 18.084 144.158 18.0068 143.69 18.0325H141.791V25.1991ZM150.373 22.8387C150.325 22.3432 150.382 21.8432 150.541 21.3709C150.699 20.8986 150.955 20.4643 151.293 20.0959C151.63 19.7276 152.042 19.4332 152.501 19.2318C152.96 19.0304 153.456 18.9264 153.958 18.9264C154.46 18.9264 154.956 19.0304 155.415 19.2318C155.874 19.4332 156.286 19.7276 156.623 20.0959C156.961 20.4643 157.217 20.8986 157.376 21.3709C157.534 21.8432 157.591 22.3432 157.543 22.8387C157.592 23.3348 157.536 23.8355 157.378 24.3087C157.22 24.7819 156.964 25.2171 156.626 25.5863C156.289 25.9555 155.877 26.2505 155.417 26.4524C154.958 26.6543 154.461 26.7586 153.958 26.7586C153.456 26.7586 152.959 26.6543 152.499 26.4524C152.04 26.2505 151.628 25.9555 151.29 25.5863C150.952 25.2171 150.696 24.7819 150.538 24.3087C150.38 23.8355 150.324 23.3348 150.373 22.8387ZM156 22.8387C156 21.2042 155.26 20.2484 153.961 20.2484C152.656 20.2484 151.923 21.2042 151.923 22.8387C151.923 24.4862 152.657 25.4347 153.961 25.4347C155.26 25.4347 156 24.4797 156 22.8387ZM167.075 26.612H165.519L163.947 21.0587H163.829L162.264 26.612H160.722L158.627 19.0717H160.149L161.511 24.8253H161.623L163.186 19.0717H164.625L166.188 24.8253H166.307L167.662 19.0717H169.163L167.075 26.612ZM170.925 19.0719H172.37V20.2697H172.482C172.672 19.8394 172.993 19.4787 173.399 19.2379C173.806 18.9971 174.278 18.8881 174.751 18.9262C175.12 18.8986 175.492 18.954 175.837 19.0881C176.183 19.2222 176.493 19.4317 176.746 19.701C176.999 19.9704 177.187 20.2926 177.297 20.644C177.407 20.9953 177.436 21.3667 177.382 21.7307V26.6118H175.882V22.1044C175.882 20.8927 175.351 20.2901 174.241 20.2901C173.99 20.2785 173.739 20.3209 173.506 20.4144C173.273 20.5079 173.063 20.6503 172.891 20.8318C172.718 21.0132 172.587 21.2296 172.507 21.4659C172.427 21.7022 172.399 21.9529 172.426 22.2009V26.612H170.925V19.0719ZM179.773 16.1283H181.273V26.612H179.773V16.1283ZM183.359 22.8387C183.311 22.3431 183.368 21.8431 183.527 21.3707C183.685 20.8983 183.941 20.464 184.279 20.0955C184.617 19.7271 185.028 19.4328 185.487 19.2313C185.946 19.0299 186.443 18.9259 186.945 18.9259C187.447 18.9259 187.943 19.0299 188.402 19.2313C188.861 19.4328 189.273 19.7271 189.61 20.0955C189.948 20.464 190.204 20.8983 190.363 21.3707C190.521 21.8431 190.578 22.3431 190.53 22.8387C190.579 23.3347 190.522 23.8353 190.364 24.3084C190.206 24.7814 189.95 25.2164 189.612 25.5855C189.275 25.9545 188.863 26.2494 188.404 26.4512C187.944 26.653 187.447 26.7573 186.945 26.7573C186.442 26.7573 185.945 26.653 185.486 26.4512C185.026 26.2494 184.615 25.9545 184.277 25.5855C183.939 25.2164 183.683 24.7814 183.525 24.3084C183.367 23.8353 183.31 23.3347 183.359 22.8387ZM188.986 22.8387C188.986 21.2042 188.246 20.2484 186.947 20.2484C185.642 20.2484 184.909 21.2042 184.909 22.8387C184.909 24.4862 185.643 25.4347 186.947 25.4347C188.246 25.4347 188.986 24.4797 188.986 22.8387ZM192.11 24.4797C192.11 23.1223 193.129 22.3399 194.938 22.2287L196.997 22.1109V21.4601C196.997 20.6637 196.466 20.2141 195.441 20.2141C194.603 20.2141 194.023 20.519 193.856 21.0522H192.403C192.557 19.7569 193.785 18.9264 195.51 18.9264C197.416 18.9264 198.491 19.8674 198.491 21.4601V26.612H197.046V25.5524H196.928C196.687 25.9325 196.348 26.2423 195.947 26.4503C195.546 26.6583 195.096 26.757 194.644 26.7363C194.325 26.7692 194.002 26.7354 193.697 26.6371C193.392 26.5388 193.111 26.3782 192.872 26.1656C192.634 25.953 192.442 25.6931 192.311 25.4028C192.18 25.1124 192.111 24.7979 192.11 24.4797ZM196.997 23.8354V23.2049L195.14 23.3226C194.093 23.3921 193.619 23.7454 193.619 24.41C193.619 25.0887 194.212 25.4837 195.028 25.4837C195.267 25.5077 195.509 25.4838 195.739 25.4133C195.968 25.3428 196.181 25.2273 196.365 25.0735C196.549 24.9197 196.699 24.7308 196.808 24.5181C196.916 24.3054 196.981 24.0732 196.997 23.8354ZM200.463 22.8387C200.463 20.456 201.698 18.9468 203.619 18.9468C204.094 18.9251 204.565 19.0379 204.978 19.2722C205.391 19.5064 205.728 19.8524 205.95 20.2697H206.062V16.1281H207.563V26.6118H206.125V25.4204H206.006C205.767 25.8349 205.418 26.1765 204.997 26.4084C204.577 26.6404 204.1 26.7537 203.619 26.7361C201.685 26.7361 200.463 25.2267 200.463 22.8385V22.8387ZM202.013 22.8387C202.013 24.4378 202.773 25.4003 204.044 25.4003C205.309 25.4003 206.09 24.4241 206.09 22.8451C206.09 21.2737 205.3 20.2836 204.044 20.2836C202.781 20.2836 202.013 21.2524 202.013 22.8387ZM213.77 22.8387C213.723 22.3432 213.78 21.8432 213.938 21.3709C214.097 20.8986 214.353 20.4643 214.69 20.0959C215.028 19.7276 215.439 19.4332 215.898 19.2318C216.357 19.0304 216.854 18.9264 217.356 18.9264C217.858 18.9264 218.354 19.0304 218.813 19.2318C219.272 19.4332 219.683 19.7276 220.021 20.0959C220.359 20.4643 220.615 20.8986 220.773 21.3709C220.932 21.8432 220.989 22.3432 220.941 22.8387C220.99 23.3348 220.933 23.8355 220.775 24.3087C220.617 24.7819 220.361 25.2171 220.024 25.5863C219.686 25.9555 219.274 26.2505 218.815 26.4524C218.355 26.6543 217.858 26.7586 217.356 26.7586C216.853 26.7586 216.356 26.6543 215.897 26.4524C215.437 26.2505 215.025 25.9555 214.688 25.5863C214.35 25.2171 214.094 24.7819 213.936 24.3087C213.778 23.8355 213.722 23.3348 213.77 22.8387ZM219.398 22.8387C219.398 21.2042 218.657 20.2484 217.358 20.2484C216.054 20.2484 215.32 21.2042 215.32 22.8387C215.32 24.4862 216.054 25.4347 217.358 25.4347C218.657 25.4347 219.398 24.4797 219.398 22.8387ZM222.954 19.0719H224.399V20.2697H224.511C224.701 19.8394 225.022 19.4787 225.428 19.2379C225.835 18.9971 226.307 18.8881 226.779 18.9262C227.149 18.8986 227.521 18.954 227.866 19.0881C228.212 19.2222 228.522 19.4317 228.775 19.701C229.028 19.9704 229.216 20.2926 229.326 20.644C229.436 20.9953 229.465 21.3667 229.411 21.7307V26.6118H227.911V22.1044C227.911 20.8927 227.38 20.2901 226.27 20.2901C226.019 20.2785 225.768 20.3209 225.535 20.4144C225.302 20.5079 225.092 20.6503 224.92 20.8318C224.747 21.0132 224.616 21.2296 224.536 21.4659C224.456 21.7022 224.428 21.9529 224.455 22.2009V26.612H222.954L222.954 19.0719ZM237.889 17.1946V19.1062H239.536V20.3596H237.889V24.2367C237.889 25.0266 238.217 25.3725 238.964 25.3725C239.155 25.3719 239.346 25.3604 239.536 25.3381V26.5777C239.267 26.6255 238.994 26.6509 238.72 26.6537C237.052 26.6537 236.387 26.0715 236.387 24.6178V20.3596H235.18V19.1061H236.387V17.1948L237.889 17.1946ZM241.586 16.1283H243.073V20.2836H243.192C243.391 19.8493 243.721 19.4866 244.136 19.2449C244.55 19.0031 245.03 18.8942 245.51 18.9327C245.878 18.9129 246.246 18.9738 246.587 19.1112C246.929 19.2486 247.236 19.459 247.486 19.7275C247.736 19.996 247.923 20.316 248.034 20.6645C248.145 21.0131 248.177 21.3816 248.128 21.7439V26.612H246.626V22.1109C246.626 20.9065 246.061 20.2966 245.001 20.2966C244.743 20.2757 244.483 20.3108 244.24 20.3997C243.998 20.4885 243.778 20.6289 243.595 20.811C243.413 20.993 243.273 21.2124 243.185 21.4538C243.097 21.6951 243.063 21.9526 243.086 22.2082V26.612H241.586V16.1283ZM256.877 24.576C256.673 25.2651 256.231 25.8613 255.629 26.2601C255.027 26.6589 254.302 26.835 253.583 26.7575C253.082 26.7706 252.584 26.6755 252.124 26.4787C251.664 26.2819 251.252 25.9882 250.918 25.6179C250.584 25.2476 250.335 24.8096 250.189 24.3343C250.042 23.8591 250.002 23.3579 250.071 22.8656C250.004 22.3718 250.045 21.8696 250.191 21.3929C250.337 20.9162 250.584 20.4761 250.917 20.1026C251.249 19.729 251.659 19.4307 252.117 19.2277C252.576 19.0248 253.074 18.9219 253.576 18.9262C255.691 18.9262 256.968 20.3596 256.968 22.7273V23.2466H251.599V23.33C251.576 23.6067 251.611 23.8852 251.702 24.1477C251.793 24.4102 251.939 24.6508 252.13 24.8542C252.32 25.0576 252.552 25.2192 252.809 25.3287C253.066 25.4382 253.344 25.4932 253.624 25.4901C253.983 25.5328 254.346 25.4688 254.668 25.306C254.99 25.1432 255.256 24.8891 255.432 24.576H256.877ZM251.599 22.1461H255.439C255.458 21.8931 255.423 21.6389 255.337 21.3999C255.251 21.1609 255.116 20.9424 254.94 20.7585C254.763 20.5745 254.55 20.4292 254.314 20.3317C254.078 20.2343 253.823 20.187 253.568 20.1928C253.308 20.1896 253.051 20.2379 252.81 20.3349C252.57 20.4319 252.352 20.5757 252.168 20.7577C251.985 20.9398 251.84 21.1564 251.742 21.3949C251.644 21.6333 251.596 21.8887 251.599 22.1461Z" fill="white"/>
<g filter="url(#filter1_dddddd_40_1340)">
<path d="M520.517 2H333.444C329.328 2 325.961 5.76764 325.961 10.3726V60.6077C325.961 65.2127 329.328 68.9803 333.444 68.9803H520.517C524.633 68.9803 528 65.2127 528 60.6078V10.3726C528 5.76764 524.633 2 520.517 2Z" fill="black"/>
<path fill-rule="evenodd" clip-rule="evenodd" d="M333.444 2H520.517C524.633 2 528 5.76764 528 10.3726V60.6078C528 65.2127 524.633 68.9803 520.517 68.9803H333.444C329.328 68.9803 325.961 65.2127 325.961 60.6077V10.3726C325.961 5.76764 329.328 2 333.444 2Z" fill="black"/>
</g>
<path d="M519.667 68H334.334C330.301 68 327 64.3438 327 59.875V11.125C327 6.65624 330.3 3 334.334 3H519.667C523.7 3 527 6.65624 527 11.125V59.875C527 64.3438 523.701 68 519.667 68Z" fill="black"/>
<path d="M396.927 19.1528C396.927 20.5557 396.555 21.6729 395.812 22.5063C394.967 23.4973 393.866 23.9931 392.513 23.9931C391.217 23.9931 390.115 23.4908 389.209 22.4847C388.301 21.4793 387.848 20.2326 387.848 18.7452C387.848 17.2571 388.301 16.0111 389.209 15.0049C390.115 13.9997 391.217 13.4966 392.513 13.4966C393.156 13.4966 393.771 13.6373 394.356 13.9179C394.941 14.1993 395.409 14.5727 395.76 15.0403L394.971 15.924C394.377 15.1293 393.558 14.7322 392.513 14.7322C391.567 14.7322 390.75 15.1038 390.06 15.8475C389.37 16.592 389.026 17.5573 389.026 18.7452C389.026 19.9331 389.37 20.8984 390.06 21.6429C390.75 22.3866 391.567 22.7582 392.513 22.7582C393.515 22.7582 394.351 22.3846 395.021 21.6364C395.455 21.149 395.706 20.4714 395.774 19.6014H392.513V18.3946H396.864C396.906 18.657 396.926 18.9088 396.926 19.1528" fill="white"/>
<path d="M396.927 19.1529H396.777C396.776 20.5238 396.418 21.5886 395.706 22.388L395.704 22.3893L395.704 22.3907C394.886 23.3475 393.835 23.8237 392.513 23.8258C391.251 23.8237 390.195 23.3423 389.314 22.3664C388.434 21.3885 387.999 20.1947 387.997 18.7453C387.999 17.2952 388.434 16.102 389.314 15.1248C390.195 14.1482 391.251 13.6661 392.513 13.6641C393.137 13.6641 393.731 13.8003 394.297 14.0717C394.864 14.3452 395.312 14.7036 395.646 15.1485L395.76 15.0404L395.655 14.922L394.865 15.8063L394.971 15.9241L395.086 15.8169C394.464 14.9828 393.591 14.5624 392.513 14.5649C391.533 14.5635 390.67 14.9554 389.957 15.7273C389.237 16.5017 388.875 17.5215 388.876 18.7453C388.875 19.9692 389.237 20.9888 389.957 21.7633C390.67 22.5352 391.533 22.9271 392.513 22.9257C393.549 22.9277 394.432 22.5345 395.127 21.7549C395.591 21.2341 395.854 20.5128 395.923 19.6158L395.937 19.434H392.662V18.5621H396.864V18.3947L396.717 18.4241C396.758 18.678 396.777 18.9193 396.777 19.1529H397.076C397.076 18.8984 397.055 18.6368 397.011 18.3647L396.989 18.2272H392.363V19.7689H395.774V19.6015L395.625 19.5871C395.559 20.4297 395.319 21.0642 394.915 21.5182C394.272 22.235 393.483 22.5888 392.513 22.5908C391.603 22.5895 390.83 22.2388 390.165 21.5226C389.505 20.809 389.177 19.8978 389.175 18.7453C389.177 17.5927 389.505 16.6816 390.165 15.9679C390.83 15.2517 391.603 14.9011 392.513 14.8998C393.525 14.9025 394.289 15.2766 394.857 16.0321L394.962 16.172L395.866 15.1589L395.963 15.0503L395.875 14.9331C395.507 14.4426 395.017 14.0533 394.415 13.7644C393.812 13.4745 393.175 13.3292 392.513 13.3292C391.182 13.3279 390.034 13.8512 389.103 14.8867C388.168 15.9202 387.697 17.2193 387.698 18.7453C387.697 20.2706 388.168 21.5704 389.103 22.6045C390.034 23.6394 391.182 24.162 392.513 24.1607C393.898 24.162 395.048 23.6471 395.92 22.6221L395.812 22.5064L395.918 22.6248C396.693 21.7581 397.077 20.5873 397.076 19.1529H396.927H396.927ZM403.825 14.956H399.736V18.1416H403.423V19.3489H399.736V22.5345H403.825V23.7688H398.583V13.7218H403.825V14.956Z" fill="white"/>
<path d="M403.825 14.9558V14.7884H399.586V18.3089H403.274V19.1808L399.586 19.1812V22.7017H403.675V23.6011H398.732V13.889H403.675V14.9558H403.825V14.7884V14.9558H403.974V13.5541H398.433V23.936H403.974V22.3668H399.885V19.5161H403.573V17.974H399.885V15.1232H403.974V14.9558H403.825ZM408.691 23.7686H407.536V14.9557H405.028V13.7214H411.199V14.9557H408.691V23.7685" fill="white"/>
<path d="M408.691 23.7686V23.6011H407.686V14.7884H405.178V13.889H411.049V14.7884H408.541V23.7686H408.691V23.6011V23.7686H408.84V15.1232H411.348V13.5541H404.878V15.1232H407.386V23.9359H408.84V23.7685H408.691V23.7686ZM415.663 23.7686V13.7214H416.817V23.7685H415.663" fill="white"/>
<path d="M415.663 23.7686H415.813V13.889H416.667V23.6011H415.663V23.7686H415.813H415.663V23.936H416.966V13.5541H415.513V23.936H415.663V23.7686V23.7686ZM421.934 23.7686H420.78V14.9557H418.272V13.7214H424.442V14.9557H421.934V23.7685" fill="white"/>
<path d="M421.935 23.7688V23.6013H420.93V14.7885H418.422V13.8892H424.293V14.7885H421.785V23.7687H421.935V23.6013V23.7687H422.084V15.1234H424.592V13.5542H418.123V15.1233H420.63V23.9361H422.084V23.7686H421.935V23.7688ZM430.392 21.6292C431.056 22.382 431.869 22.7581 432.831 22.7581C433.793 22.7581 434.607 22.382 435.27 21.6292C435.935 20.8764 436.269 19.914 436.269 18.7452C436.269 17.5765 435.935 16.6141 435.27 15.8612C434.607 15.1083 433.793 14.7322 432.831 14.7322C431.869 14.7322 431.056 15.1083 430.392 15.8612C429.728 16.6141 429.395 17.5764 429.395 18.7452C429.395 19.914 429.728 20.8764 430.392 21.6292ZM436.124 22.4703C435.241 23.486 434.143 23.9931 432.831 23.9931C431.518 23.9931 430.421 23.486 429.54 22.4703C428.656 21.4557 428.217 20.2137 428.217 18.7452C428.217 17.2766 428.656 16.0345 429.54 15.0201C430.421 14.0041 431.518 13.4966 432.831 13.4966C434.136 13.4966 435.231 14.0068 436.118 15.0266C437.003 16.0463 437.447 17.2858 437.447 18.7452C437.447 20.2137 437.005 21.4557 436.124 22.4703Z" fill="white"/>
<path d="M430.392 21.6293L430.285 21.747C430.975 22.53 431.835 22.9277 432.831 22.9257C433.827 22.9277 434.689 22.53 435.377 21.747C436.071 20.9633 436.42 19.9495 436.418 18.7453C436.419 17.5412 436.071 16.5273 435.377 15.7435C434.689 14.9606 433.827 14.5629 432.831 14.5649C431.835 14.5629 430.975 14.9606 430.285 15.7435C429.593 16.5273 429.244 17.5412 429.245 18.7453C429.244 19.9494 429.593 20.9633 430.285 21.747L430.392 21.6293L430.498 21.5116C429.863 20.7887 429.546 19.8795 429.545 18.7453C429.546 17.6112 429.863 16.7019 430.498 15.979C431.139 15.2563 431.904 14.9018 432.831 14.8998C433.758 14.9018 434.525 15.2563 435.164 15.979C435.8 16.7019 436.117 17.6112 436.119 18.7453C436.117 19.8794 435.8 20.7887 435.164 21.5116C434.525 22.2343 433.758 22.5888 432.831 22.5907C431.904 22.5888 431.139 22.2343 430.498 21.5116L430.392 21.6293ZM436.124 22.4704L436.017 22.3541C435.159 23.3378 434.109 23.8238 432.831 23.8258C431.553 23.8237 430.503 23.3378 429.647 22.3541L429.643 22.3488L429.647 22.3541C428.791 21.3669 428.368 20.1765 428.367 18.7453C428.368 17.3141 428.791 16.1236 429.647 15.1366C430.503 14.1528 431.553 13.6662 432.831 13.6642C434.101 13.6662 435.148 14.1548 436.011 15.1437C436.87 16.1354 437.295 17.3239 437.297 18.7453C437.295 20.1765 436.871 21.3669 436.017 22.3541L436.124 22.4704L436.231 22.5867C437.139 21.5442 437.597 20.251 437.596 18.7453C437.598 17.2481 437.137 15.9576 436.225 14.9104C435.314 13.859 434.171 13.3274 432.831 13.3292C431.484 13.3274 430.339 13.8566 429.432 14.9038V14.9031C428.523 15.9463 428.066 17.2396 428.067 18.7453C428.066 20.251 428.523 21.5442 429.432 22.5874L429.436 22.5922L429.432 22.5867C430.339 23.634 431.484 24.162 432.831 24.1607C434.178 24.162 435.323 23.634 436.231 22.5867L436.124 22.4704ZM439.066 23.7689V13.7217H440.47L444.834 21.5376H444.884L444.834 19.6014V13.7217H445.989V23.7687H444.785L440.219 15.5741H440.169L440.219 17.5109V23.7687H439.066" fill="white"/>
<path d="M439.066 23.7686H439.215V13.889H440.387L444.751 21.7049H445.037L444.984 19.5987V13.889H445.839V23.6011H444.867L440.302 15.4064H440.015L440.069 17.5135V23.6011H439.066V23.7686H439.215H439.066V23.936H440.368V17.5081L440.319 15.5694L440.169 15.5739V15.7413H440.219V15.5739L440.092 15.6629L444.701 23.936H446.138V13.5541H444.684V19.6032L444.734 21.5419L444.884 21.5374V21.37H444.834V21.5374L444.961 21.4486L440.553 13.5541H438.916V23.936H439.066V23.7686L439.066 23.7686ZM486 52.2352H488.792V31.3019H486L486 52.2352ZM511.153 38.8426L507.952 47.9182H507.856L504.533 38.8425H501.525L506.507 51.5274L503.667 58.5833H506.581L514.258 38.8425L511.153 38.8426ZM495.316 49.8576C494.4 49.8576 493.125 49.346 493.125 48.0798C493.125 46.464 494.714 45.8447 496.085 45.8447C497.314 45.8447 497.89 46.1409 498.637 46.5453C498.42 48.484 496.928 49.8576 495.316 49.8576ZM495.653 38.3846C493.631 38.3846 491.537 39.3813 490.671 41.5897L493.149 42.7475C493.679 41.5897 494.665 41.2122 495.701 41.2122C497.145 41.2122 498.613 42.1823 498.637 43.9059V44.1211C498.131 43.7979 497.049 43.3133 495.724 43.3133C493.053 43.3133 490.332 44.9557 490.332 48.026C490.332 50.827 492.523 52.6316 494.978 52.6316C496.856 52.6316 497.89 51.689 498.541 50.585H498.637V52.2006H501.332V44.1746C501.332 40.4588 498.854 38.3846 495.653 38.3846ZM478.394 41.3908H474.422V34.2154H478.394C480.482 34.2154 481.667 36.1494 481.667 37.803C481.667 39.4252 480.482 41.3908 478.394 41.3908ZM478.322 31.3019H471.631V52.2352H474.422V44.3042H478.322C481.417 44.3042 484.46 41.797 484.46 37.803C484.46 33.8091 481.417 31.3019 478.322 31.3019ZM441.834 49.8615C439.905 49.8615 438.289 48.0542 438.289 45.5718C438.289 43.0635 439.905 41.2287 441.834 41.2287C443.739 41.2287 445.233 43.0634 445.233 45.5718C445.233 48.0542 443.739 49.8615 441.834 49.8615H441.834ZM445.04 40.0147H444.944C444.317 39.1786 443.111 38.4232 441.593 38.4232C438.41 38.4232 435.493 41.5524 435.493 45.5718C435.493 49.5646 438.41 52.667 441.593 52.667C443.111 52.667 444.317 51.9114 444.944 51.0486H445.04V52.0736C445.04 54.7987 443.739 56.2554 441.641 56.2554C439.929 56.2554 438.868 54.8791 438.434 53.7193L435.999 54.8523C436.698 56.7407 438.555 59.0609 441.641 59.0609C444.92 59.0609 447.693 56.9022 447.693 51.642V38.8549H445.04V40.0147ZM449.621 52.2352H452.418V31.3011H449.621V52.2352ZM456.541 45.3292C456.469 42.5773 458.446 41.1749 459.868 41.1749C460.978 41.1749 461.918 41.795 462.231 42.6861L456.541 45.3292ZM465.221 42.9554C464.691 41.3633 463.075 38.4232 459.772 38.4232C456.493 38.4232 453.769 41.3097 453.769 45.5451C453.769 49.5378 456.469 52.667 460.085 52.667C463.003 52.667 464.691 50.6705 465.39 49.5108L463.22 47.8919C462.497 49.0791 461.508 49.8615 460.085 49.8615C458.663 49.8615 457.65 49.1328 456.999 47.7035L465.51 43.7646L465.221 42.9554ZM397.413 40.6085V43.6298H403.875C403.682 45.3292 403.176 46.5701 402.404 47.4334C401.464 48.4859 399.993 49.6456 397.413 49.6456C393.435 49.6456 390.325 46.0578 390.325 41.6066C390.325 37.1555 393.435 33.5672 397.413 33.5672C399.559 33.5672 401.126 34.5116 402.284 35.7255L404.188 33.5946C402.573 31.8677 400.427 30.5459 397.413 30.5459C391.964 30.5459 387.383 35.5098 387.383 41.6066C387.383 47.7035 391.964 52.667 397.413 52.667C400.355 52.667 402.573 51.5884 404.309 49.5646C406.093 47.5682 406.648 44.7628 406.648 42.4969C406.648 41.795 406.6 41.1481 406.503 40.6085H397.413ZM413.994 49.8615C412.065 49.8615 410.401 48.0809 410.401 45.5451C410.401 42.9822 412.065 41.2287 413.994 41.2287C415.922 41.2287 417.586 42.9822 417.586 45.5451C417.586 48.081 415.922 49.8615 413.994 49.8615ZM413.994 38.4232C410.473 38.4232 407.604 41.4175 407.604 45.5451C407.604 49.6456 410.473 52.667 413.994 52.667C417.514 52.667 420.383 49.6456 420.383 45.5451C420.383 41.4175 417.514 38.4232 413.994 38.4232ZM427.932 49.8615C426.003 49.8615 424.34 48.0809 424.34 45.5451C424.34 42.9822 426.003 41.2287 427.932 41.2287C429.861 41.2287 431.524 42.9822 431.524 45.5451C431.524 48.081 429.861 49.8615 427.932 49.8615H427.932ZM427.932 38.4232C424.412 38.4232 421.543 41.4175 421.543 45.5451C421.543 49.6456 424.412 52.667 427.932 52.667C431.452 52.667 434.321 49.6456 434.321 45.5451C434.321 41.4175 431.452 38.4232 427.932 38.4232H427.932Z" fill="white"/>
<path d="M341.688 14.7455C341.186 15.2525 340.886 16.0981 340.886 17.2207V16.9669V54.0089V53.7649C340.886 54.8015 341.143 55.6021 341.578 56.1177L341.69 56.2368V56.2373C342.042 56.5932 342.494 56.7821 343.012 56.7815C343.518 56.7815 344.088 56.601 344.689 56.2197L366.412 42.4096L373.874 37.6654C374.821 37.063 375.353 36.2859 375.442 35.4944V35.4911C375.353 34.6978 374.821 33.9213 373.874 33.3188L366.411 28.5752L344.689 14.765C344.086 14.3831 343.516 14.2019 343.009 14.2019C342.492 14.2019 342.04 14.3903 341.688 14.7455H341.688Z" fill="#00C1FF"/>
<path d="M341.69 56.2365L341.578 56.1174C341.143 55.6019 340.886 54.8012 340.886 53.7646V54.0086V16.9758V17.2204C340.886 16.0978 341.186 15.2522 341.688 14.7452L360.23 35.4915L341.69 56.2365Z" fill="url(#paint0_linear_40_1340)"/>
<path d="M366.412 42.4095L360.23 35.4918L366.412 28.5752L373.874 33.3188C374.822 33.9213 375.354 34.6977 375.443 35.4911V35.4943C375.354 36.2859 374.822 37.063 373.874 37.6653L366.412 42.4095" fill="url(#paint1_linear_40_1340)"/>
<path d="M343.012 56.7811C342.494 56.7817 342.042 56.5926 341.69 56.2368V56.2363L360.231 35.4913L366.412 42.409L344.689 56.2193C344.088 56.6006 343.518 56.7811 343.012 56.7811Z" fill="url(#paint2_linear_40_1340)"/>
<path d="M360.23 35.4921L341.688 14.7458C342.04 14.3905 342.492 14.2022 343.009 14.2022C343.517 14.2022 344.087 14.3833 344.689 14.7653L366.412 28.5755L360.23 35.4921" fill="url(#paint3_linear_40_1340)"/>
<path d="M343.013 57.0272C342.495 57.0272 342.042 56.8382 341.69 56.4824L341.689 56.483C341.688 56.4813 341.686 56.4798 341.684 56.4785L341.588 56.3731C341.585 56.3698 341.582 56.3659 341.579 56.3621L341.69 56.2377C342.042 56.5935 342.494 56.7826 343.012 56.7819C343.518 56.7819 344.088 56.6014 344.689 56.2201L366.412 42.4099L366.551 42.5657L366.41 42.6553L344.689 56.4647C344.141 56.8121 343.62 56.9932 343.149 57.0234C343.104 57.0259 343.058 57.0271 343.013 57.0271" fill="url(#paint4_linear_40_1340)"/>
<path d="M341.578 56.3615C341.143 55.8459 340.886 55.046 340.886 54.0086V53.7647C340.886 54.8013 341.143 55.6019 341.578 56.1175L341.69 56.2365L341.578 56.3615Z" fill="url(#paint5_linear_40_1340)"/>
<path d="M366.551 42.5645L366.412 42.4087L373.873 37.6646C374.821 37.0623 375.353 36.2851 375.442 35.4936C375.442 35.784 375.384 36.0745 375.269 36.3571C375.037 36.9268 374.572 37.4651 373.873 37.9092L366.551 42.5646" fill="url(#paint6_linear_40_1340)"/>
<path d="M375.442 35.4916C375.353 34.6981 374.821 33.9217 373.874 33.3192L366.411 28.5757L366.55 28.4199H366.551L373.874 33.0752C374.918 33.7398 375.442 34.6156 375.442 35.4916Z" fill="url(#paint7_linear_40_1340)"/>
<path d="M340.886 17.2203V16.9645C340.886 16.8722 340.888 16.782 340.892 16.6944V16.6904C340.892 16.6892 340.892 16.6879 340.893 16.6865V16.6767C340.938 15.7838 341.186 15.0873 341.578 14.6222L341.688 14.7451C341.186 15.2522 340.886 16.0978 340.886 17.2203Z" fill="url(#paint8_linear_40_1340)"/>
<path d="M366.411 28.5752L344.689 14.7649C344.087 14.383 343.517 14.2018 343.009 14.2018C342.492 14.2018 342.04 14.3902 341.688 14.7454L341.579 14.6224C341.613 14.582 341.648 14.5429 341.685 14.5054C341.686 14.5041 341.688 14.5027 341.689 14.5014C342.039 14.1489 342.485 13.9605 342.998 13.9572H343.009C343.517 13.9572 344.087 14.1384 344.689 14.5205L366.551 28.4189L366.551 28.4194L366.411 28.5752Z" fill="url(#paint9_linear_40_1340)"/>
<defs>
<filter id="filter0_dddddd_40_1340" x="0" y="0.703704" width="362.039" height="248.276" filterUnits="userSpaceOnUse" color-interpolation-filters="sRGB">
<feFlood flood-opacity="0" result="BackgroundImageFix"/>
<feColorMatrix in="SourceAlpha" type="matrix" values="0 0 0 0 0 0 0 0 0 0 0 0 0 0 0 0 0 0 127 0" result="hardAlpha"/>
<feOffset dy="1.85185"/>
<feGaussianBlur stdDeviation="1.57407"/>
<feColorMatrix type="matrix" values="0 0 0 0 0.219608 0 0 0 0 0.219608 0 0 0 0 0.219608 0 0 0 0.0240741 0"/>
<feBlend mode="normal" in2="BackgroundImageFix" result="effect1_dropShadow_40_1340"/>
<feColorMatrix in="SourceAlpha" type="matrix" values="0 0 0 0 0 0 0 0 0 0 0 0 0 0 0 0 0 0 127 0" result="hardAlpha"/>
<feOffset dy="8.14815"/>
<feGaussianBlur stdDeviation="3.25926"/>
<feColorMatrix type="matrix" values="0 0 0 0 0.219608 0 0 0 0 0.219608 0 0 0 0 0.219608 0 0 0 0.0392593 0"/>
<feBlend mode="normal" in2="effect1_dropShadow_40_1340" result="effect2_dropShadow_40_1340"/>
<feColorMatrix in="SourceAlpha" type="matrix" values="0 0 0 0 0 0 0 0 0 0 0 0 0 0 0 0 0 0 127 0" result="hardAlpha"/>
<feOffset dy="20"/>
<feGaussianBlur stdDeviation="6.5"/>
<feColorMatrix type="matrix" values="0 0 0 0 0.219608 0 0 0 0 0.219608 0 0 0 0 0.219608 0 0 0 0.05 0"/>
<feBlend mode="normal" in2="effect2_dropShadow_40_1340" result="effect3_dropShadow_40_1340"/>
<feColorMatrix in="SourceAlpha" type="matrix" values="0 0 0 0 0 0 0 0 0 0 0 0 0 0 0 0 0 0 127 0" result="hardAlpha"/>
<feOffset dy="38.5185"/>
<feGaussianBlur stdDeviation="12.7407"/>
<feColorMatrix type="matrix" values="0 0 0 0 0.219608 0 0 0 0 0.219608 0 0 0 0 0.219608 0 0 0 0.0607407 0"/>
<feBlend mode="normal" in2="effect3_dropShadow_40_1340" result="effect4_dropShadow_40_1340"/>
<feColorMatrix in="SourceAlpha" type="matrix" values="0 0 0 0 0 0 0 0 0 0 0 0 0 0 0 0 0 0 127 0" result="hardAlpha"/>
<feOffset dy="64.8148"/>
<feGaussianBlur stdDeviation="23.4259"/>
<feColorMatrix type="matrix" values="0 0 0 0 0.219608 0 0 0 0 0.219608 0 0 0 0 0.219608 0 0 0 0.0759259 0"/>
<feBlend mode="normal" in2="effect4_dropShadow_40_1340" result="effect5_dropShadow_40_1340"/>
<feColorMatrix in="SourceAlpha" type="matrix" values="0 0 0 0 0 0 0 0 0 0 0 0 0 0 0 0 0 0 127 0" result="hardAlpha"/>
<feOffset dy="100"/>
<feGaussianBlur stdDeviation="40"/>
<feColorMatrix type="matrix" values="0 0 0 0 0.219608 0 0 0 0 0.219608 0 0 0 0 0.219608 0 0 0 0.1 0"/>
<feBlend mode="normal" in2="effect5_dropShadow_40_1340" result="effect6_dropShadow_40_1340"/>
<feBlend mode="normal" in="SourceGraphic" in2="effect6_dropShadow_40_1340" result="shape"/>
</filter>
<filter id="filter1_dddddd_40_1340" x="245.961" y="0.703704" width="362.039" height="248.277" filterUnits="userSpaceOnUse" color-interpolation-filters="sRGB">
<feFlood flood-opacity="0" result="BackgroundImageFix"/>
<feColorMatrix in="SourceAlpha" type="matrix" values="0 0 0 0 0 0 0 0 0 0 0 0 0 0 0 0 0 0 127 0" result="hardAlpha"/>
<feOffset dy="1.85185"/>
<feGaussianBlur stdDeviation="1.57407"/>
<feColorMatrix type="matrix" values="0 0 0 0 0.219608 0 0 0 0 0.219608 0 0 0 0 0.219608 0 0 0 0.0240741 0"/>
<feBlend mode="normal" in2="BackgroundImageFix" result="effect1_dropShadow_40_1340"/>
<feColorMatrix in="SourceAlpha" type="matrix" values="0 0 0 0 0 0 0 0 0 0 0 0 0 0 0 0 0 0 127 0" result="hardAlpha"/>
<feOffset dy="8.14815"/>
<feGaussianBlur stdDeviation="3.25926"/>
<feColorMatrix type="matrix" values="0 0 0 0 0.219608 0 0 0 0 0.219608 0 0 0 0 0.219608 0 0 0 0.0392593 0"/>
<feBlend mode="normal" in2="effect1_dropShadow_40_1340" result="effect2_dropShadow_40_1340"/>
<feColorMatrix in="SourceAlpha" type="matrix" values="0 0 0 0 0 0 0 0 0 0 0 0 0 0 0 0 0 0 127 0" result="hardAlpha"/>
<feOffset dy="20"/>
<feGaussianBlur stdDeviation="6.5"/>
<feColorMatrix type="matrix" values="0 0 0 0 0.219608 0 0 0 0 0.219608 0 0 0 0 0.219608 0 0 0 0.05 0"/>
<feBlend mode="normal" in2="effect2_dropShadow_40_1340" result="effect3_dropShadow_40_1340"/>
<feColorMatrix in="SourceAlpha" type="matrix" values="0 0 0 0 0 0 0 0 0 0 0 0 0 0 0 0 0 0 127 0" result="hardAlpha"/>
<feOffset dy="38.5185"/>
<feGaussianBlur stdDeviation="12.7407"/>
<feColorMatrix type="matrix" values="0 0 0 0 0.219608 0 0 0 0 0.219608 0 0 0 0 0.219608 0 0 0 0.0607407 0"/>
<feBlend mode="normal" in2="effect3_dropShadow_40_1340" result="effect4_dropShadow_40_1340"/>
<feColorMatrix in="SourceAlpha" type="matrix" values="0 0 0 0 0 0 0 0 0 0 0 0 0 0 0 0 0 0 127 0" result="hardAlpha"/>
<feOffset dy="64.8148"/>
<feGaussianBlur stdDeviation="23.4259"/>
<feColorMatrix type="matrix" values="0 0 0 0 0.219608 0 0 0 0 0.219608 0 0 0 0 0.219608 0 0 0 0.0759259 0"/>
<feBlend mode="normal" in2="effect4_dropShadow_40_1340" result="effect5_dropShadow_40_1340"/>
<feColorMatrix in="SourceAlpha" type="matrix" values="0 0 0 0 0 0 0 0 0 0 0 0 0 0 0 0 0 0 127 0" result="hardAlpha"/>
<feOffset dy="100"/>
<feGaussianBlur stdDeviation="40"/>
<feColorMatrix type="matrix" values="0 0 0 0 0.219608 0 0 0 0 0.219608 0 0 0 0 0.219608 0 0 0 0.1 0"/>
<feBlend mode="normal" in2="effect5_dropShadow_40_1340" result="effect6_dropShadow_40_1340"/>
<feBlend mode="normal" in="SourceGraphic" in2="effect6_dropShadow_40_1340" result="shape"/>
</filter>
<linearGradient id="paint0_linear_40_1340" x1="352.735" y1="16.5844" x2="334.991" y2="32.4947" gradientUnits="userSpaceOnUse">
<stop stop-color="#00A0FF"/>
<stop offset="0.00657" stop-color="#00A1FF"/>
<stop offset="0.2601" stop-color="#00BEFF"/>
<stop offset="0.5122" stop-color="#00D2FF"/>
<stop offset="0.7604" stop-color="#00DFFF"/>
<stop offset="1" stop-color="#00E3FF"/>
</linearGradient>
<linearGradient id="paint1_linear_40_1340" x1="376.597" y1="35.3723" x2="340.384" y2="35.3723" gradientUnits="userSpaceOnUse">
<stop stop-color="#FFE000"/>
<stop offset="0.4087" stop-color="#FFBD00"/>
<stop offset="0.7754" stop-color="#FFA500"/>
<stop offset="1" stop-color="#FF9C00"/>
</linearGradient>
<linearGradient id="paint2_linear_40_1340" x1="363.13" y1="42.0684" x2="333.085" y2="68.8112" gradientUnits="userSpaceOnUse">
<stop stop-color="#FF3A44"/>
<stop offset="1" stop-color="#C31162"/>
</linearGradient>
<linearGradient id="paint3_linear_40_1340" x1="336.909" y1="11.67" x2="350.302" y2="23.609" gradientUnits="userSpaceOnUse">
<stop stop-color="#32A071"/>
<stop offset="0.0685" stop-color="#2DA771"/>
<stop offset="0.4762" stop-color="#15CF74"/>
<stop offset="0.8009" stop-color="#06E775"/>
<stop offset="1" stop-color="#00F076"/>
</linearGradient>
<linearGradient id="paint4_linear_40_1340" x1="363.117" y1="46.8678" x2="339.035" y2="68.46" gradientUnits="userSpaceOnUse">
<stop stop-color="#CC2E36"/>
<stop offset="1" stop-color="#9C0E4E"/>
</linearGradient>
<linearGradient id="paint5_linear_40_1340" x1="343.356" y1="16.5844" x2="327.723" y2="30.6015" gradientUnits="userSpaceOnUse">
<stop stop-color="#008DE0"/>
<stop offset="0.00657" stop-color="#008DE0"/>
<stop offset="0.2601" stop-color="#00A7E0"/>
<stop offset="0.5122" stop-color="#00B8E0"/>
<stop offset="0.7604" stop-color="#00C4E0"/>
<stop offset="1" stop-color="#00C7E0"/>
</linearGradient>
<linearGradient id="paint6_linear_40_1340" x1="376.597" y1="35.492" x2="340.384" y2="35.492" gradientUnits="userSpaceOnUse">
<stop stop-color="#E0C500"/>
<stop offset="0.4087" stop-color="#E0A600"/>
<stop offset="0.7754" stop-color="#E09100"/>
<stop offset="1" stop-color="#E08900"/>
</linearGradient>
<linearGradient id="paint7_linear_40_1340" x1="376.597" y1="35.4932" x2="340.384" y2="35.4932" gradientUnits="userSpaceOnUse">
<stop stop-color="#FFE840"/>
<stop offset="0.4087" stop-color="#FFCE40"/>
<stop offset="0.7754" stop-color="#FFBC40"/>
<stop offset="1" stop-color="#FFB540"/>
</linearGradient>
<linearGradient id="paint8_linear_40_1340" x1="343.341" y1="16.6128" x2="328.357" y2="29.4659" gradientUnits="userSpaceOnUse">
<stop stop-color="#40B8FF"/>
<stop offset="0.00657" stop-color="#40B9FF"/>
<stop offset="0.2601" stop-color="#40CEFF"/>
<stop offset="0.5122" stop-color="#40DDFF"/>
<stop offset="0.7604" stop-color="#40E7FF"/>
<stop offset="1" stop-color="#40EAFF"/>
</linearGradient>
<linearGradient id="paint9_linear_40_1340" x1="336.882" y1="16.0571" x2="347.635" y2="25.699" gradientUnits="userSpaceOnUse">
<stop stop-color="#65B895"/>
<stop offset="0.0685" stop-color="#62BD95"/>
<stop offset="0.4762" stop-color="#50DB97"/>
<stop offset="0.8009" stop-color="#44ED98"/>
<stop offset="1" stop-color="#40F498"/>
</linearGradient>
</defs>
</svg>
